solid 
 facet normal  9.927089e-01  1.205367e-01  0.000000e+00
   outer loop
     vertex  2.427355e+00  5.982892e-01  5.000000e+01
     vertex  2.500000e+00 -6.123234e-16  5.000000e+01
     vertex  2.500000e+00 -6.123234e-16  0.000000e+00
   endloop
 endfacet
 facet normal  9.927089e-01  1.205367e-01  0.000000e+00
   outer loop
     vertex  2.427355e+00  5.982892e-01  5.000000e+01
     vertex  2.500000e+00 -6.123234e-16  0.000000e+00
     vertex  2.427355e+00  5.982892e-01  0.000000e+00
   endloop
 endfacet
 facet normal  9.350162e-01  3.546049e-01  0.000000e+00
   outer loop
     vertex  2.213640e+00  1.161808e+00  5.000000e+01
     vertex  2.427355e+00  5.982892e-01  0.000000e+00
     vertex  2.213640e+00  1.161808e+00  0.000000e+00
   endloop
 endfacet
 facet normal  9.350162e-01  3.546049e-01  0.000000e+00
   outer loop
     vertex  2.213640e+00  1.161808e+00  5.000000e+01
     vertex  2.427355e+00  5.982892e-01  5.000000e+01
     vertex  2.427355e+00  5.982892e-01  0.000000e+00
   endloop
 endfacet
 facet normal  8.229839e-01  5.680647e-01  0.000000e+00
   outer loop
     vertex  1.871277e+00  1.657807e+00  5.000000e+01
     vertex  2.213640e+00  1.161808e+00  0.000000e+00
     vertex  1.871277e+00  1.657807e+00  0.000000e+00
   endloop
 endfacet
 facet normal  8.229839e-01  5.680647e-01  0.000000e+00
   outer loop
     vertex  1.871277e+00  1.657807e+00  5.000000e+01
     vertex  2.213640e+00  1.161808e+00  5.000000e+01
     vertex  2.213640e+00  1.161808e+00  0.000000e+00
   endloop
 endfacet
 facet normal  6.631227e-01  7.485107e-01  0.000000e+00
   outer loop
     vertex  1.420162e+00  2.057460e+00  5.000000e+01
     vertex  1.871277e+00  1.657807e+00  0.000000e+00
     vertex  1.420162e+00  2.057460e+00  0.000000e+00
   endloop
 endfacet
 facet normal  6.631227e-01  7.485107e-01  0.000000e+00
   outer loop
     vertex  1.420162e+00  2.057460e+00  5.000000e+01
     vertex  1.871277e+00  1.657807e+00  5.000000e+01
     vertex  1.871277e+00  1.657807e+00  0.000000e+00
   endloop
 endfacet
 facet normal  4.647232e-01  8.854560e-01  0.000000e+00
   outer loop
     vertex  8.865122e-01  2.337541e+00  5.000000e+01
     vertex  1.420162e+00  2.057460e+00  0.000000e+00
     vertex  8.865122e-01  2.337541e+00  0.000000e+00
   endloop
 endfacet
 facet normal  4.647232e-01  8.854560e-01  0.000000e+00
   outer loop
     vertex  8.865122e-01  2.337541e+00  5.000000e+01
     vertex  1.420162e+00  2.057460e+00  5.000000e+01
     vertex  1.420162e+00  2.057460e+00  0.000000e+00
   endloop
 endfacet
 facet normal  2.393157e-01  9.709418e-01  0.000000e+00
   outer loop
     vertex  3.013417e-01  2.481772e+00  5.000000e+01
     vertex  8.865122e-01  2.337541e+00  0.000000e+00
     vertex  3.013417e-01  2.481772e+00  0.000000e+00
   endloop
 endfacet
 facet normal  2.393157e-01  9.709418e-01  0.000000e+00
   outer loop
     vertex  3.013417e-01  2.481772e+00  5.000000e+01
     vertex  8.865122e-01  2.337541e+00  5.000000e+01
     vertex  8.865122e-01  2.337541e+00  0.000000e+00
   endloop
 endfacet
 facet normal  0.000000e+00  1.000000e+00  0.000000e+00
   outer loop
     vertex -3.013417e-01  2.481772e+00  5.000000e+01
     vertex  3.013417e-01  2.481772e+00  0.000000e+00
     vertex -3.013417e-01  2.481772e+00  0.000000e+00
   endloop
 endfacet
 facet normal -2.393157e-01  9.709418e-01  0.000000e+00
   outer loop
     vertex -3.013417e-01  2.481772e+00  5.000000e+01
     vertex -3.013417e-01  2.481772e+00  0.000000e+00
     vertex -8.865122e-01  2.337541e+00  0.000000e+00
   endloop
 endfacet
 facet normal -0.000000e+00  1.000000e+00  0.000000e+00
   outer loop
     vertex -3.013417e-01  2.481772e+00  5.000000e+01
     vertex  3.013417e-01  2.481772e+00  5.000000e+01
     vertex  3.013417e-01  2.481772e+00  0.000000e+00
   endloop
 endfacet
 facet normal -2.393157e-01  9.709418e-01  0.000000e+00
   outer loop
     vertex -8.865122e-01  2.337541e+00  5.000000e+01
     vertex -3.013417e-01  2.481772e+00  5.000000e+01
     vertex -8.865122e-01  2.337541e+00  0.000000e+00
   endloop
 endfacet
 facet normal -4.647232e-01  8.854560e-01  0.000000e+00
   outer loop
     vertex -1.420162e+00  2.057460e+00  5.000000e+01
     vertex -8.865122e-01  2.337541e+00  0.000000e+00
     vertex -1.420162e+00  2.057460e+00  0.000000e+00
   endloop
 endfacet
 facet normal -4.647232e-01  8.854560e-01  0.000000e+00
   outer loop
     vertex -1.420162e+00  2.057460e+00  5.000000e+01
     vertex -8.865122e-01  2.337541e+00  5.000000e+01
     vertex -8.865122e-01  2.337541e+00  0.000000e+00
   endloop
 endfacet
 facet normal -6.631227e-01  7.485107e-01  0.000000e+00
   outer loop
     vertex -1.871277e+00  1.657807e+00  5.000000e+01
     vertex -1.420162e+00  2.057460e+00  0.000000e+00
     vertex -1.871277e+00  1.657807e+00  0.000000e+00
   endloop
 endfacet
 facet normal -6.631227e-01  7.485107e-01  0.000000e+00
   outer loop
     vertex -1.871277e+00  1.657807e+00  5.000000e+01
     vertex -1.420162e+00  2.057460e+00  5.000000e+01
     vertex -1.420162e+00  2.057460e+00  0.000000e+00
   endloop
 endfacet
 facet normal -8.229839e-01  5.680647e-01  0.000000e+00
   outer loop
     vertex -2.213640e+00  1.161808e+00  5.000000e+01
     vertex -1.871277e+00  1.657807e+00  0.000000e+00
     vertex -2.213640e+00  1.161808e+00  0.000000e+00
   endloop
 endfacet
 facet normal -8.229839e-01  5.680647e-01  0.000000e+00
   outer loop
     vertex -2.213640e+00  1.161808e+00  5.000000e+01
     vertex -1.871277e+00  1.657807e+00  5.000000e+01
     vertex -1.871277e+00  1.657807e+00  0.000000e+00
   endloop
 endfacet
 facet normal -9.350162e-01  3.546049e-01  0.000000e+00
   outer loop
     vertex -2.427355e+00  5.982892e-01  5.000000e+01
     vertex -2.213640e+00  1.161808e+00  5.000000e+01
     vertex -2.213640e+00  1.161808e+00  0.000000e+00
   endloop
 endfacet
 facet normal -9.350162e-01  3.546049e-01  0.000000e+00
   outer loop
     vertex -2.427355e+00  5.982892e-01  5.000000e+01
     vertex -2.213640e+00  1.161808e+00  0.000000e+00
     vertex -2.427355e+00  5.982892e-01  0.000000e+00
   endloop
 endfacet
 facet normal -9.927089e-01  1.205367e-01  0.000000e+00
   outer loop
     vertex -2.500000e+00  2.526608e-15  5.000000e+01
     vertex -2.427355e+00  5.982892e-01  5.000000e+01
     vertex -2.427355e+00  5.982892e-01  0.000000e+00
   endloop
 endfacet
 facet normal -9.927089e-01  1.205367e-01  0.000000e+00
   outer loop
     vertex -2.500000e+00  2.526608e-15  5.000000e+01
     vertex -2.427355e+00  5.982892e-01  0.000000e+00
     vertex -2.500000e+00  2.526608e-15  0.000000e+00
   endloop
 endfacet
 facet normal -9.927089e-01 -1.205367e-01  0.000000e+00
   outer loop
     vertex -2.427355e+00 -5.982892e-01  5.000000e+01
     vertex -2.500000e+00  2.526608e-15  5.000000e+01
     vertex -2.500000e+00  2.526608e-15  0.000000e+00
   endloop
 endfacet
 facet normal -9.927089e-01 -1.205367e-01 -0.000000e+00
   outer loop
     vertex -2.427355e+00 -5.982892e-01  5.000000e+01
     vertex -2.500000e+00  2.526608e-15  0.000000e+00
     vertex -2.427355e+00 -5.982892e-01  0.000000e+00
   endloop
 endfacet
 facet normal -9.350162e-01 -3.546049e-01  0.000000e+00
   outer loop
     vertex -2.213640e+00 -1.161808e+00  5.000000e+01
     vertex -2.427355e+00 -5.982892e-01  5.000000e+01
     vertex -2.427355e+00 -5.982892e-01  0.000000e+00
   endloop
 endfacet
 facet normal -9.350162e-01 -3.546049e-01 -0.000000e+00
   outer loop
     vertex -2.213640e+00 -1.161808e+00  5.000000e+01
     vertex -2.427355e+00 -5.982892e-01  0.000000e+00
     vertex -2.213640e+00 -1.161808e+00  0.000000e+00
   endloop
 endfacet
 facet normal -8.229839e-01 -5.680647e-01  0.000000e+00
   outer loop
     vertex -1.871277e+00 -1.657807e+00  5.000000e+01
     vertex -2.213640e+00 -1.161808e+00  5.000000e+01
     vertex -2.213640e+00 -1.161808e+00  0.000000e+00
   endloop
 endfacet
 facet normal -8.229839e-01 -5.680647e-01 -0.000000e+00
   outer loop
     vertex -1.871277e+00 -1.657807e+00  5.000000e+01
     vertex -2.213640e+00 -1.161808e+00  0.000000e+00
     vertex -1.871277e+00 -1.657807e+00  0.000000e+00
   endloop
 endfacet
 facet normal -6.631227e-01 -7.485107e-01  0.000000e+00
   outer loop
     vertex -1.420162e+00 -2.057460e+00  5.000000e+01
     vertex -1.871277e+00 -1.657807e+00  5.000000e+01
     vertex -1.871277e+00 -1.657807e+00  0.000000e+00
   endloop
 endfacet
 facet normal -6.631227e-01 -7.485107e-01 -0.000000e+00
   outer loop
     vertex -1.420162e+00 -2.057460e+00  5.000000e+01
     vertex -1.871277e+00 -1.657807e+00  0.000000e+00
     vertex -1.420162e+00 -2.057460e+00  0.000000e+00
   endloop
 endfacet
 facet normal -4.647232e-01 -8.854560e-01  0.000000e+00
   outer loop
     vertex -8.865122e-01 -2.337541e+00  5.000000e+01
     vertex -1.420162e+00 -2.057460e+00  5.000000e+01
     vertex -1.420162e+00 -2.057460e+00  0.000000e+00
   endloop
 endfacet
 facet normal -4.647232e-01 -8.854560e-01 -0.000000e+00
   outer loop
     vertex -8.865122e-01 -2.337541e+00  5.000000e+01
     vertex -1.420162e+00 -2.057460e+00  0.000000e+00
     vertex -8.865122e-01 -2.337541e+00  0.000000e+00
   endloop
 endfacet
 facet normal -2.393157e-01 -9.709418e-01  0.000000e+00
   outer loop
     vertex -3.013417e-01 -2.481772e+00  5.000000e+01
     vertex -8.865122e-01 -2.337541e+00  5.000000e+01
     vertex -8.865122e-01 -2.337541e+00  0.000000e+00
   endloop
 endfacet
 facet normal -2.393157e-01 -9.709418e-01 -0.000000e+00
   outer loop
     vertex -3.013417e-01 -2.481772e+00  5.000000e+01
     vertex -8.865122e-01 -2.337541e+00  0.000000e+00
     vertex -3.013417e-01 -2.481772e+00  0.000000e+00
   endloop
 endfacet
 facet normal -2.947413e-15 -1.000000e+00  0.000000e+00
   outer loop
     vertex  3.013417e-01 -2.481772e+00  5.000000e+01
     vertex -3.013417e-01 -2.481772e+00  5.000000e+01
     vertex -3.013417e-01 -2.481772e+00  0.000000e+00
   endloop
 endfacet
 facet normal -2.947413e-15 -1.000000e+00 -0.000000e+00
   outer loop
     vertex  3.013417e-01 -2.481772e+00  5.000000e+01
     vertex -3.013417e-01 -2.481772e+00  0.000000e+00
     vertex  3.013417e-01 -2.481772e+00  0.000000e+00
   endloop
 endfacet
 facet normal  2.393157e-01 -9.709418e-01  0.000000e+00
   outer loop
     vertex  8.865122e-01 -2.337541e+00  5.000000e+01
     vertex  3.013417e-01 -2.481772e+00  5.000000e+01
     vertex  3.013417e-01 -2.481772e+00  0.000000e+00
   endloop
 endfacet
 facet normal  2.393157e-01 -9.709418e-01  0.000000e+00
   outer loop
     vertex  8.865122e-01 -2.337541e+00  5.000000e+01
     vertex  3.013417e-01 -2.481772e+00  0.000000e+00
     vertex  8.865122e-01 -2.337541e+00  0.000000e+00
   endloop
 endfacet
 facet normal  4.647232e-01 -8.854560e-01  0.000000e+00
   outer loop
     vertex  1.420162e+00 -2.057460e+00  5.000000e+01
     vertex  8.865122e-01 -2.337541e+00  5.000000e+01
     vertex  8.865122e-01 -2.337541e+00  0.000000e+00
   endloop
 endfacet
 facet normal  4.647232e-01 -8.854560e-01  0.000000e+00
   outer loop
     vertex  1.420162e+00 -2.057460e+00  5.000000e+01
     vertex  8.865122e-01 -2.337541e+00  0.000000e+00
     vertex  1.420162e+00 -2.057460e+00  0.000000e+00
   endloop
 endfacet
 facet normal  6.631227e-01 -7.485107e-01  0.000000e+00
   outer loop
     vertex  1.871277e+00 -1.657807e+00  5.000000e+01
     vertex  1.420162e+00 -2.057460e+00  5.000000e+01
     vertex  1.420162e+00 -2.057460e+00  0.000000e+00
   endloop
 endfacet
 facet normal  6.631227e-01 -7.485107e-01  0.000000e+00
   outer loop
     vertex  1.871277e+00 -1.657807e+00  5.000000e+01
     vertex  1.420162e+00 -2.057460e+00  0.000000e+00
     vertex  1.871277e+00 -1.657807e+00  0.000000e+00
   endloop
 endfacet
 facet normal  8.229839e-01 -5.680647e-01  0.000000e+00
   outer loop
     vertex  1.871277e+00 -1.657807e+00  5.000000e+01
     vertex  1.871277e+00 -1.657807e+00  0.000000e+00
     vertex  2.213640e+00 -1.161808e+00  0.000000e+00
   endloop
 endfacet
 facet normal  8.229839e-01 -5.680647e-01  0.000000e+00
   outer loop
     vertex  2.213640e+00 -1.161808e+00  5.000000e+01
     vertex  1.871277e+00 -1.657807e+00  5.000000e+01
     vertex  2.213640e+00 -1.161808e+00  0.000000e+00
   endloop
 endfacet
 facet normal  9.350162e-01 -3.546049e-01  0.000000e+00
   outer loop
     vertex  2.427355e+00 -5.982892e-01  5.000000e+01
     vertex  2.213640e+00 -1.161808e+00  0.000000e+00
     vertex  2.427355e+00 -5.982892e-01  0.000000e+00
   endloop
 endfacet
 facet normal  9.350162e-01 -3.546049e-01  0.000000e+00
   outer loop
     vertex  2.427355e+00 -5.982892e-01  5.000000e+01
     vertex  2.213640e+00 -1.161808e+00  5.000000e+01
     vertex  2.213640e+00 -1.161808e+00  0.000000e+00
   endloop
 endfacet
 facet normal  9.927089e-01 -1.205367e-01  0.000000e+00
   outer loop
     vertex  2.500000e+00 -6.123234e-16  5.000000e+01
     vertex  2.427355e+00 -5.982892e-01  0.000000e+00
     vertex  2.500000e+00 -6.123234e-16  0.000000e+00
   endloop
 endfacet
 facet normal  9.927089e-01 -1.205367e-01  0.000000e+00
   outer loop
     vertex  2.500000e+00 -6.123234e-16  5.000000e+01
     vertex  2.427355e+00 -5.982892e-01  5.000000e+01
     vertex  2.427355e+00 -5.982892e-01  0.000000e+00
   endloop
 endfacet
 facet normal  0.000000e+00  0.000000e+00  1.000000e+00
   outer loop
     vertex -8.865122e-01 -2.337541e+00  5.000000e+01
     vertex -1.871277e+00 -1.657807e+00  5.000000e+01
     vertex -1.420162e+00 -2.057460e+00  5.000000e+01
   endloop
 endfacet
 facet normal  0.000000e+00  0.000000e+00  1.000000e+00
   outer loop
     vertex  8.865122e-01 -2.337541e+00  5.000000e+01
     vertex -3.013417e-01 -2.481772e+00  5.000000e+01
     vertex  3.013417e-01 -2.481772e+00  5.000000e+01
   endloop
 endfacet
 facet normal  0.000000e+00  0.000000e+00  1.000000e+00
   outer loop
     vertex  2.213640e+00 -1.161808e+00  5.000000e+01
     vertex  8.865122e-01 -2.337541e+00  5.000000e+01
     vertex  1.420162e+00 -2.057460e+00  5.000000e+01
   endloop
 endfacet
 facet normal  0.000000e+00  0.000000e+00  1.000000e+00
   outer loop
     vertex  2.213640e+00 -1.161808e+00  5.000000e+01
     vertex  1.420162e+00 -2.057460e+00  5.000000e+01
     vertex  1.871277e+00 -1.657807e+00  5.000000e+01
   endloop
 endfacet
 facet normal  0.000000e+00  0.000000e+00  1.000000e+00
   outer loop
     vertex  2.213640e+00 -1.161808e+00  5.000000e+01
     vertex -3.013417e-01 -2.481772e+00  5.000000e+01
     vertex  8.865122e-01 -2.337541e+00  5.000000e+01
   endloop
 endfacet
 facet normal  0.000000e+00  0.000000e+00  1.000000e+00
   outer loop
     vertex -8.865122e-01  2.337541e+00  5.000000e+01
     vertex -1.420162e+00  2.057460e+00  5.000000e+01
     vertex -1.871277e+00  1.657807e+00  5.000000e+01
   endloop
 endfacet
 facet normal  0.000000e+00  0.000000e+00  1.000000e+00
   outer loop
     vertex -8.865122e-01  2.337541e+00  5.000000e+01
     vertex -1.871277e+00  1.657807e+00  5.000000e+01
     vertex -2.213640e+00  1.161808e+00  5.000000e+01
   endloop
 endfacet
 facet normal  0.000000e+00  0.000000e+00  1.000000e+00
   outer loop
     vertex  2.500000e+00 -6.123234e-16  5.000000e+01
     vertex  2.213640e+00 -1.161808e+00  5.000000e+01
     vertex  2.427355e+00 -5.982892e-01  5.000000e+01
   endloop
 endfacet
 facet normal  0.000000e+00  0.000000e+00  1.000000e+00
   outer loop
     vertex  8.865122e-01  2.337541e+00  5.000000e+01
     vertex  3.013417e-01  2.481772e+00  5.000000e+01
     vertex -3.013417e-01  2.481772e+00  5.000000e+01
   endloop
 endfacet
 facet normal  0.000000e+00  0.000000e+00  1.000000e+00
   outer loop
     vertex  1.420162e+00  2.057460e+00  5.000000e+01
     vertex -3.013417e-01  2.481772e+00  5.000000e+01
     vertex -8.865122e-01  2.337541e+00  5.000000e+01
   endloop
 endfacet
 facet normal  0.000000e+00  0.000000e+00  1.000000e+00
   outer loop
     vertex  1.420162e+00  2.057460e+00  5.000000e+01
     vertex  8.865122e-01  2.337541e+00  5.000000e+01
     vertex -3.013417e-01  2.481772e+00  5.000000e+01
   endloop
 endfacet
 facet normal  0.000000e+00  0.000000e+00  1.000000e+00
   outer loop
     vertex  1.871277e+00  1.657807e+00  5.000000e+01
     vertex  2.500000e+00 -6.123234e-16  5.000000e+01
     vertex  2.427355e+00  5.982892e-01  5.000000e+01
   endloop
 endfacet
 facet normal  0.000000e+00  0.000000e+00  1.000000e+00
   outer loop
     vertex  1.871277e+00  1.657807e+00  5.000000e+01
     vertex  2.427355e+00  5.982892e-01  5.000000e+01
     vertex  2.213640e+00  1.161808e+00  5.000000e+01
   endloop
 endfacet
 facet normal  0.000000e+00  0.000000e+00  1.000000e+00
   outer loop
     vertex  1.871277e+00  1.657807e+00  5.000000e+01
     vertex -2.213640e+00  1.161808e+00  5.000000e+01
     vertex -2.427355e+00  5.982892e-01  5.000000e+01
   endloop
 endfacet
 facet normal  0.000000e+00  0.000000e+00  1.000000e+00
   outer loop
     vertex  1.871277e+00  1.657807e+00  5.000000e+01
     vertex -2.427355e+00  5.982892e-01  5.000000e+01
     vertex -2.500000e+00  2.526608e-15  5.000000e+01
   endloop
 endfacet
 facet normal  0.000000e+00  0.000000e+00  1.000000e+00
   outer loop
     vertex  1.871277e+00  1.657807e+00  5.000000e+01
     vertex -2.500000e+00  2.526608e-15  5.000000e+01
     vertex -2.427355e+00 -5.982892e-01  5.000000e+01
   endloop
 endfacet
 facet normal  0.000000e+00  0.000000e+00  1.000000e+00
   outer loop
     vertex  1.871277e+00  1.657807e+00  5.000000e+01
     vertex -2.427355e+00 -5.982892e-01  5.000000e+01
     vertex -2.213640e+00 -1.161808e+00  5.000000e+01
   endloop
 endfacet
 facet normal  0.000000e+00  0.000000e+00  1.000000e+00
   outer loop
     vertex  1.871277e+00  1.657807e+00  5.000000e+01
     vertex -2.213640e+00 -1.161808e+00  5.000000e+01
     vertex -1.871277e+00 -1.657807e+00  5.000000e+01
   endloop
 endfacet
 facet normal  0.000000e+00  0.000000e+00  1.000000e+00
   outer loop
     vertex  1.871277e+00  1.657807e+00  5.000000e+01
     vertex -8.865122e-01 -2.337541e+00  5.000000e+01
     vertex -3.013417e-01 -2.481772e+00  5.000000e+01
   endloop
 endfacet
 facet normal  0.000000e+00  0.000000e+00  1.000000e+00
   outer loop
     vertex  1.871277e+00  1.657807e+00  5.000000e+01
     vertex -1.871277e+00 -1.657807e+00  5.000000e+01
     vertex -8.865122e-01 -2.337541e+00  5.000000e+01
   endloop
 endfacet
 facet normal  0.000000e+00  0.000000e+00  1.000000e+00
   outer loop
     vertex  1.871277e+00  1.657807e+00  5.000000e+01
     vertex  2.213640e+00 -1.161808e+00  5.000000e+01
     vertex  2.500000e+00 -6.123234e-16  5.000000e+01
   endloop
 endfacet
 facet normal  0.000000e+00  0.000000e+00  1.000000e+00
   outer loop
     vertex  1.871277e+00  1.657807e+00  5.000000e+01
     vertex -3.013417e-01 -2.481772e+00  5.000000e+01
     vertex  2.213640e+00 -1.161808e+00  5.000000e+01
   endloop
 endfacet
 facet normal  0.000000e+00  0.000000e+00  1.000000e+00
   outer loop
     vertex  1.871277e+00  1.657807e+00  5.000000e+01
     vertex -8.865122e-01  2.337541e+00  5.000000e+01
     vertex -2.213640e+00  1.161808e+00  5.000000e+01
   endloop
 endfacet
 facet normal  0.000000e+00  0.000000e+00  1.000000e+00
   outer loop
     vertex  1.871277e+00  1.657807e+00  5.000000e+01
     vertex  1.420162e+00  2.057460e+00  5.000000e+01
     vertex -8.865122e-01  2.337541e+00  5.000000e+01
   endloop
 endfacet
 facet normal  0.000000e+00  0.000000e+00 -1.000000e+00
   outer loop
     vertex -8.865122e-01 -2.337541e+00  0.000000e+00
     vertex -1.420162e+00 -2.057460e+00  0.000000e+00
     vertex -1.871277e+00 -1.657807e+00  0.000000e+00
   endloop
 endfacet
 facet normal  0.000000e+00  0.000000e+00 -1.000000e+00
   outer loop
     vertex  8.865122e-01 -2.337541e+00  0.000000e+00
     vertex  3.013417e-01 -2.481772e+00  0.000000e+00
     vertex -3.013417e-01 -2.481772e+00  0.000000e+00
   endloop
 endfacet
 facet normal  0.000000e+00  0.000000e+00 -1.000000e+00
   outer loop
     vertex  2.213640e+00 -1.161808e+00  0.000000e+00
     vertex  1.420162e+00 -2.057460e+00  0.000000e+00
     vertex  8.865122e-01 -2.337541e+00  0.000000e+00
   endloop
 endfacet
 facet normal  0.000000e+00  0.000000e+00 -1.000000e+00
   outer loop
     vertex  2.213640e+00 -1.161808e+00  0.000000e+00
     vertex  1.871277e+00 -1.657807e+00  0.000000e+00
     vertex  1.420162e+00 -2.057460e+00  0.000000e+00
   endloop
 endfacet
 facet normal  0.000000e+00  0.000000e+00 -1.000000e+00
   outer loop
     vertex  2.213640e+00 -1.161808e+00  0.000000e+00
     vertex  8.865122e-01 -2.337541e+00  0.000000e+00
     vertex -3.013417e-01 -2.481772e+00  0.000000e+00
   endloop
 endfacet
 facet normal  0.000000e+00  0.000000e+00 -1.000000e+00
   outer loop
     vertex -8.865122e-01  2.337541e+00  0.000000e+00
     vertex -1.871277e+00  1.657807e+00  0.000000e+00
     vertex -1.420162e+00  2.057460e+00  0.000000e+00
   endloop
 endfacet
 facet normal  0.000000e+00  0.000000e+00 -1.000000e+00
   outer loop
     vertex -8.865122e-01  2.337541e+00  0.000000e+00
     vertex -2.213640e+00  1.161808e+00  0.000000e+00
     vertex -1.871277e+00  1.657807e+00  0.000000e+00
   endloop
 endfacet
 facet normal  0.000000e+00  0.000000e+00 -1.000000e+00
   outer loop
     vertex  2.500000e+00 -6.123234e-16  0.000000e+00
     vertex  2.427355e+00 -5.982892e-01  0.000000e+00
     vertex  2.213640e+00 -1.161808e+00  0.000000e+00
   endloop
 endfacet
 facet normal  0.000000e+00  0.000000e+00 -1.000000e+00
   outer loop
     vertex  8.865122e-01  2.337541e+00  0.000000e+00
     vertex -3.013417e-01  2.481772e+00  0.000000e+00
     vertex  3.013417e-01  2.481772e+00  0.000000e+00
   endloop
 endfacet
 facet normal  0.000000e+00  0.000000e+00 -1.000000e+00
   outer loop
     vertex  1.420162e+00  2.057460e+00  0.000000e+00
     vertex -8.865122e-01  2.337541e+00  0.000000e+00
     vertex -3.013417e-01  2.481772e+00  0.000000e+00
   endloop
 endfacet
 facet normal  0.000000e+00  0.000000e+00 -1.000000e+00
   outer loop
     vertex  1.420162e+00  2.057460e+00  0.000000e+00
     vertex -3.013417e-01  2.481772e+00  0.000000e+00
     vertex  8.865122e-01  2.337541e+00  0.000000e+00
   endloop
 endfacet
 facet normal  0.000000e+00  0.000000e+00 -1.000000e+00
   outer loop
     vertex  1.871277e+00  1.657807e+00  0.000000e+00
     vertex  2.427355e+00  5.982892e-01  0.000000e+00
     vertex  2.500000e+00 -6.123234e-16  0.000000e+00
   endloop
 endfacet
 facet normal  0.000000e+00  0.000000e+00 -1.000000e+00
   outer loop
     vertex  1.871277e+00  1.657807e+00  0.000000e+00
     vertex  2.213640e+00  1.161808e+00  0.000000e+00
     vertex  2.427355e+00  5.982892e-01  0.000000e+00
   endloop
 endfacet
 facet normal  0.000000e+00  0.000000e+00 -1.000000e+00
   outer loop
     vertex  1.871277e+00  1.657807e+00  0.000000e+00
     vertex -2.427355e+00  5.982892e-01  0.000000e+00
     vertex -2.213640e+00  1.161808e+00  0.000000e+00
   endloop
 endfacet
 facet normal  0.000000e+00  0.000000e+00 -1.000000e+00
   outer loop
     vertex  1.871277e+00  1.657807e+00  0.000000e+00
     vertex -2.500000e+00  2.526608e-15  0.000000e+00
     vertex -2.427355e+00  5.982892e-01  0.000000e+00
   endloop
 endfacet
 facet normal  0.000000e+00  0.000000e+00 -1.000000e+00
   outer loop
     vertex  1.871277e+00  1.657807e+00  0.000000e+00
     vertex -2.427355e+00 -5.982892e-01  0.000000e+00
     vertex -2.500000e+00  2.526608e-15  0.000000e+00
   endloop
 endfacet
 facet normal  0.000000e+00  0.000000e+00 -1.000000e+00
   outer loop
     vertex  1.871277e+00  1.657807e+00  0.000000e+00
     vertex -2.213640e+00 -1.161808e+00  0.000000e+00
     vertex -2.427355e+00 -5.982892e-01  0.000000e+00
   endloop
 endfacet
 facet normal  0.000000e+00  0.000000e+00 -1.000000e+00
   outer loop
     vertex  1.871277e+00  1.657807e+00  0.000000e+00
     vertex -1.871277e+00 -1.657807e+00  0.000000e+00
     vertex -2.213640e+00 -1.161808e+00  0.000000e+00
   endloop
 endfacet
 facet normal  0.000000e+00  0.000000e+00 -1.000000e+00
   outer loop
     vertex  1.871277e+00  1.657807e+00  0.000000e+00
     vertex -3.013417e-01 -2.481772e+00  0.000000e+00
     vertex -8.865122e-01 -2.337541e+00  0.000000e+00
   endloop
 endfacet
 facet normal  0.000000e+00  0.000000e+00 -1.000000e+00
   outer loop
     vertex  1.871277e+00  1.657807e+00  0.000000e+00
     vertex -8.865122e-01 -2.337541e+00  0.000000e+00
     vertex -1.871277e+00 -1.657807e+00  0.000000e+00
   endloop
 endfacet
 facet normal  0.000000e+00  0.000000e+00 -1.000000e+00
   outer loop
     vertex  1.871277e+00  1.657807e+00  0.000000e+00
     vertex  2.500000e+00 -6.123234e-16  0.000000e+00
     vertex  2.213640e+00 -1.161808e+00  0.000000e+00
   endloop
 endfacet
 facet normal  0.000000e+00 -0.000000e+00 -1.000000e+00
   outer loop
     vertex  1.871277e+00  1.657807e+00  0.000000e+00
     vertex  2.213640e+00 -1.161808e+00  0.000000e+00
     vertex -3.013417e-01 -2.481772e+00  0.000000e+00
   endloop
 endfacet
 facet normal -0.000000e+00  0.000000e+00 -1.000000e+00
   outer loop
     vertex  1.871277e+00  1.657807e+00  0.000000e+00
     vertex -2.213640e+00  1.161808e+00  0.000000e+00
     vertex -8.865122e-01  2.337541e+00  0.000000e+00
   endloop
 endfacet
 facet normal  0.000000e+00  0.000000e+00 -1.000000e+00
   outer loop
     vertex  1.871277e+00  1.657807e+00  0.000000e+00
     vertex -8.865122e-01  2.337541e+00  0.000000e+00
     vertex  1.420162e+00  2.057460e+00  0.000000e+00
   endloop
 endfacet
 facet normal  9.927089e-01  1.205367e-01  0.000000e+00
   outer loop
     vertex  8.742735e+01  5.982892e-01  2.500000e+01
     vertex  8.750000e+01 -6.123234e-16  2.500000e+01
     vertex  8.750000e+01 -6.123234e-16 -2.500000e+01
   endloop
 endfacet
 facet normal  9.927089e-01  1.205367e-01  0.000000e+00
   outer loop
     vertex  8.742735e+01  5.982892e-01  2.500000e+01
     vertex  8.750000e+01 -6.123234e-16 -2.500000e+01
     vertex  8.742735e+01  5.982892e-01 -2.500000e+01
   endloop
 endfacet
 facet normal  9.350162e-01  3.546049e-01  0.000000e+00
   outer loop
     vertex  8.721364e+01  1.161808e+00  2.500000e+01
     vertex  8.742735e+01  5.982892e-01 -2.500000e+01
     vertex  8.721364e+01  1.161808e+00 -2.500000e+01
   endloop
 endfacet
 facet normal  9.350162e-01  3.546049e-01  0.000000e+00
   outer loop
     vertex  8.721364e+01  1.161808e+00  2.500000e+01
     vertex  8.742735e+01  5.982892e-01  2.500000e+01
     vertex  8.742735e+01  5.982892e-01 -2.500000e+01
   endloop
 endfacet
 facet normal  8.229839e-01  5.680647e-01  0.000000e+00
   outer loop
     vertex  8.687128e+01  1.657807e+00  2.500000e+01
     vertex  8.721364e+01  1.161808e+00 -2.500000e+01
     vertex  8.687128e+01  1.657807e+00 -2.500000e+01
   endloop
 endfacet
 facet normal  8.229839e-01  5.680647e-01  0.000000e+00
   outer loop
     vertex  8.687128e+01  1.657807e+00  2.500000e+01
     vertex  8.721364e+01  1.161808e+00  2.500000e+01
     vertex  8.721364e+01  1.161808e+00 -2.500000e+01
   endloop
 endfacet
 facet normal  6.631227e-01  7.485107e-01  0.000000e+00
   outer loop
     vertex  8.642016e+01  2.057460e+00  2.500000e+01
     vertex  8.687128e+01  1.657807e+00 -2.500000e+01
     vertex  8.642016e+01  2.057460e+00 -2.500000e+01
   endloop
 endfacet
 facet normal  6.631227e-01  7.485107e-01  0.000000e+00
   outer loop
     vertex  8.642016e+01  2.057460e+00  2.500000e+01
     vertex  8.687128e+01  1.657807e+00  2.500000e+01
     vertex  8.687128e+01  1.657807e+00 -2.500000e+01
   endloop
 endfacet
 facet normal  4.647232e-01  8.854560e-01  0.000000e+00
   outer loop
     vertex  8.588651e+01  2.337541e+00  2.500000e+01
     vertex  8.642016e+01  2.057460e+00 -2.500000e+01
     vertex  8.588651e+01  2.337541e+00 -2.500000e+01
   endloop
 endfacet
 facet normal  4.647232e-01  8.854560e-01  0.000000e+00
   outer loop
     vertex  8.588651e+01  2.337541e+00  2.500000e+01
     vertex  8.642016e+01  2.057460e+00  2.500000e+01
     vertex  8.642016e+01  2.057460e+00 -2.500000e+01
   endloop
 endfacet
 facet normal  2.393157e-01  9.709418e-01  0.000000e+00
   outer loop
     vertex  8.530134e+01  2.481772e+00  2.500000e+01
     vertex  8.588651e+01  2.337541e+00 -2.500000e+01
     vertex  8.530134e+01  2.481772e+00 -2.500000e+01
   endloop
 endfacet
 facet normal  2.393157e-01  9.709418e-01  0.000000e+00
   outer loop
     vertex  8.530134e+01  2.481772e+00  2.500000e+01
     vertex  8.588651e+01  2.337541e+00  2.500000e+01
     vertex  8.588651e+01  2.337541e+00 -2.500000e+01
   endloop
 endfacet
 facet normal  0.000000e+00  1.000000e+00  0.000000e+00
   outer loop
     vertex  8.469866e+01  2.481772e+00  2.500000e+01
     vertex  8.530134e+01  2.481772e+00 -2.500000e+01
     vertex  8.469866e+01  2.481772e+00 -2.500000e+01
   endloop
 endfacet
 facet normal -2.393157e-01  9.709418e-01  0.000000e+00
   outer loop
     vertex  8.469866e+01  2.481772e+00  2.500000e+01
     vertex  8.469866e+01  2.481772e+00 -2.500000e+01
     vertex  8.411349e+01  2.337541e+00 -2.500000e+01
   endloop
 endfacet
 facet normal -0.000000e+00  1.000000e+00  0.000000e+00
   outer loop
     vertex  8.469866e+01  2.481772e+00  2.500000e+01
     vertex  8.530134e+01  2.481772e+00  2.500000e+01
     vertex  8.530134e+01  2.481772e+00 -2.500000e+01
   endloop
 endfacet
 facet normal -2.393157e-01  9.709418e-01  0.000000e+00
   outer loop
     vertex  8.411349e+01  2.337541e+00  2.500000e+01
     vertex  8.469866e+01  2.481772e+00  2.500000e+01
     vertex  8.411349e+01  2.337541e+00 -2.500000e+01
   endloop
 endfacet
 facet normal -4.647232e-01  8.854560e-01  0.000000e+00
   outer loop
     vertex  8.357984e+01  2.057460e+00  2.500000e+01
     vertex  8.411349e+01  2.337541e+00 -2.500000e+01
     vertex  8.357984e+01  2.057460e+00 -2.500000e+01
   endloop
 endfacet
 facet normal -4.647232e-01  8.854560e-01  0.000000e+00
   outer loop
     vertex  8.357984e+01  2.057460e+00  2.500000e+01
     vertex  8.411349e+01  2.337541e+00  2.500000e+01
     vertex  8.411349e+01  2.337541e+00 -2.500000e+01
   endloop
 endfacet
 facet normal -6.631227e-01  7.485107e-01  0.000000e+00
   outer loop
     vertex  8.312872e+01  1.657807e+00  2.500000e+01
     vertex  8.357984e+01  2.057460e+00 -2.500000e+01
     vertex  8.312872e+01  1.657807e+00 -2.500000e+01
   endloop
 endfacet
 facet normal -6.631227e-01  7.485107e-01  0.000000e+00
   outer loop
     vertex  8.312872e+01  1.657807e+00  2.500000e+01
     vertex  8.357984e+01  2.057460e+00  2.500000e+01
     vertex  8.357984e+01  2.057460e+00 -2.500000e+01
   endloop
 endfacet
 facet normal -8.229839e-01  5.680647e-01  0.000000e+00
   outer loop
     vertex  8.278636e+01  1.161808e+00  2.500000e+01
     vertex  8.312872e+01  1.657807e+00 -2.500000e+01
     vertex  8.278636e+01  1.161808e+00 -2.500000e+01
   endloop
 endfacet
 facet normal -8.229839e-01  5.680647e-01  0.000000e+00
   outer loop
     vertex  8.278636e+01  1.161808e+00  2.500000e+01
     vertex  8.312872e+01  1.657807e+00  2.500000e+01
     vertex  8.312872e+01  1.657807e+00 -2.500000e+01
   endloop
 endfacet
 facet normal -9.350162e-01  3.546049e-01  0.000000e+00
   outer loop
     vertex  8.257265e+01  5.982892e-01  2.500000e+01
     vertex  8.278636e+01  1.161808e+00  2.500000e+01
     vertex  8.278636e+01  1.161808e+00 -2.500000e+01
   endloop
 endfacet
 facet normal -9.350162e-01  3.546049e-01  0.000000e+00
   outer loop
     vertex  8.257265e+01  5.982892e-01  2.500000e+01
     vertex  8.278636e+01  1.161808e+00 -2.500000e+01
     vertex  8.257265e+01  5.982892e-01 -2.500000e+01
   endloop
 endfacet
 facet normal -9.927089e-01  1.205367e-01  0.000000e+00
   outer loop
     vertex  8.250000e+01  2.526608e-15  2.500000e+01
     vertex  8.257265e+01  5.982892e-01  2.500000e+01
     vertex  8.257265e+01  5.982892e-01 -2.500000e+01
   endloop
 endfacet
 facet normal -9.927089e-01  1.205367e-01  0.000000e+00
   outer loop
     vertex  8.250000e+01  2.526608e-15  2.500000e+01
     vertex  8.257265e+01  5.982892e-01 -2.500000e+01
     vertex  8.250000e+01  2.526608e-15 -2.500000e+01
   endloop
 endfacet
 facet normal -9.927089e-01 -1.205367e-01  0.000000e+00
   outer loop
     vertex  8.257265e+01 -5.982892e-01  2.500000e+01
     vertex  8.250000e+01  2.526608e-15  2.500000e+01
     vertex  8.250000e+01  2.526608e-15 -2.500000e+01
   endloop
 endfacet
 facet normal -9.927089e-01 -1.205367e-01 -0.000000e+00
   outer loop
     vertex  8.257265e+01 -5.982892e-01  2.500000e+01
     vertex  8.250000e+01  2.526608e-15 -2.500000e+01
     vertex  8.257265e+01 -5.982892e-01 -2.500000e+01
   endloop
 endfacet
 facet normal -9.350162e-01 -3.546049e-01  0.000000e+00
   outer loop
     vertex  8.278636e+01 -1.161808e+00  2.500000e+01
     vertex  8.257265e+01 -5.982892e-01  2.500000e+01
     vertex  8.257265e+01 -5.982892e-01 -2.500000e+01
   endloop
 endfacet
 facet normal -9.350162e-01 -3.546049e-01 -0.000000e+00
   outer loop
     vertex  8.278636e+01 -1.161808e+00  2.500000e+01
     vertex  8.257265e+01 -5.982892e-01 -2.500000e+01
     vertex  8.278636e+01 -1.161808e+00 -2.500000e+01
   endloop
 endfacet
 facet normal -8.229839e-01 -5.680647e-01  0.000000e+00
   outer loop
     vertex  8.312872e+01 -1.657807e+00  2.500000e+01
     vertex  8.278636e+01 -1.161808e+00  2.500000e+01
     vertex  8.278636e+01 -1.161808e+00 -2.500000e+01
   endloop
 endfacet
 facet normal -8.229839e-01 -5.680647e-01 -0.000000e+00
   outer loop
     vertex  8.312872e+01 -1.657807e+00  2.500000e+01
     vertex  8.278636e+01 -1.161808e+00 -2.500000e+01
     vertex  8.312872e+01 -1.657807e+00 -2.500000e+01
   endloop
 endfacet
 facet normal -6.631227e-01 -7.485107e-01  0.000000e+00
   outer loop
     vertex  8.357984e+01 -2.057460e+00  2.500000e+01
     vertex  8.312872e+01 -1.657807e+00  2.500000e+01
     vertex  8.312872e+01 -1.657807e+00 -2.500000e+01
   endloop
 endfacet
 facet normal -6.631227e-01 -7.485107e-01 -0.000000e+00
   outer loop
     vertex  8.357984e+01 -2.057460e+00  2.500000e+01
     vertex  8.312872e+01 -1.657807e+00 -2.500000e+01
     vertex  8.357984e+01 -2.057460e+00 -2.500000e+01
   endloop
 endfacet
 facet normal -4.647232e-01 -8.854560e-01  0.000000e+00
   outer loop
     vertex  8.411349e+01 -2.337541e+00  2.500000e+01
     vertex  8.357984e+01 -2.057460e+00  2.500000e+01
     vertex  8.357984e+01 -2.057460e+00 -2.500000e+01
   endloop
 endfacet
 facet normal -4.647232e-01 -8.854560e-01 -0.000000e+00
   outer loop
     vertex  8.411349e+01 -2.337541e+00  2.500000e+01
     vertex  8.357984e+01 -2.057460e+00 -2.500000e+01
     vertex  8.411349e+01 -2.337541e+00 -2.500000e+01
   endloop
 endfacet
 facet normal -2.393157e-01 -9.709418e-01  0.000000e+00
   outer loop
     vertex  8.469866e+01 -2.481772e+00  2.500000e+01
     vertex  8.411349e+01 -2.337541e+00  2.500000e+01
     vertex  8.411349e+01 -2.337541e+00 -2.500000e+01
   endloop
 endfacet
 facet normal -2.393157e-01 -9.709418e-01 -0.000000e+00
   outer loop
     vertex  8.469866e+01 -2.481772e+00  2.500000e+01
     vertex  8.411349e+01 -2.337541e+00 -2.500000e+01
     vertex  8.469866e+01 -2.481772e+00 -2.500000e+01
   endloop
 endfacet
 facet normal -2.947413e-15 -1.000000e+00  0.000000e+00
   outer loop
     vertex  8.530134e+01 -2.481772e+00  2.500000e+01
     vertex  8.469866e+01 -2.481772e+00  2.500000e+01
     vertex  8.469866e+01 -2.481772e+00 -2.500000e+01
   endloop
 endfacet
 facet normal -2.947413e-15 -1.000000e+00 -0.000000e+00
   outer loop
     vertex  8.530134e+01 -2.481772e+00  2.500000e+01
     vertex  8.469866e+01 -2.481772e+00 -2.500000e+01
     vertex  8.530134e+01 -2.481772e+00 -2.500000e+01
   endloop
 endfacet
 facet normal  2.393157e-01 -9.709418e-01  0.000000e+00
   outer loop
     vertex  8.588651e+01 -2.337541e+00  2.500000e+01
     vertex  8.530134e+01 -2.481772e+00  2.500000e+01
     vertex  8.530134e+01 -2.481772e+00 -2.500000e+01
   endloop
 endfacet
 facet normal  2.393157e-01 -9.709418e-01  0.000000e+00
   outer loop
     vertex  8.588651e+01 -2.337541e+00  2.500000e+01
     vertex  8.530134e+01 -2.481772e+00 -2.500000e+01
     vertex  8.588651e+01 -2.337541e+00 -2.500000e+01
   endloop
 endfacet
 facet normal  4.647232e-01 -8.854560e-01  0.000000e+00
   outer loop
     vertex  8.642016e+01 -2.057460e+00  2.500000e+01
     vertex  8.588651e+01 -2.337541e+00  2.500000e+01
     vertex  8.588651e+01 -2.337541e+00 -2.500000e+01
   endloop
 endfacet
 facet normal  4.647232e-01 -8.854560e-01  0.000000e+00
   outer loop
     vertex  8.642016e+01 -2.057460e+00  2.500000e+01
     vertex  8.588651e+01 -2.337541e+00 -2.500000e+01
     vertex  8.642016e+01 -2.057460e+00 -2.500000e+01
   endloop
 endfacet
 facet normal  6.631227e-01 -7.485107e-01  0.000000e+00
   outer loop
     vertex  8.687128e+01 -1.657807e+00  2.500000e+01
     vertex  8.642016e+01 -2.057460e+00  2.500000e+01
     vertex  8.642016e+01 -2.057460e+00 -2.500000e+01
   endloop
 endfacet
 facet normal  6.631227e-01 -7.485107e-01  0.000000e+00
   outer loop
     vertex  8.687128e+01 -1.657807e+00  2.500000e+01
     vertex  8.642016e+01 -2.057460e+00 -2.500000e+01
     vertex  8.687128e+01 -1.657807e+00 -2.500000e+01
   endloop
 endfacet
 facet normal  8.229839e-01 -5.680647e-01  0.000000e+00
   outer loop
     vertex  8.687128e+01 -1.657807e+00  2.500000e+01
     vertex  8.687128e+01 -1.657807e+00 -2.500000e+01
     vertex  8.721364e+01 -1.161808e+00 -2.500000e+01
   endloop
 endfacet
 facet normal  8.229839e-01 -5.680647e-01  0.000000e+00
   outer loop
     vertex  8.721364e+01 -1.161808e+00  2.500000e+01
     vertex  8.687128e+01 -1.657807e+00  2.500000e+01
     vertex  8.721364e+01 -1.161808e+00 -2.500000e+01
   endloop
 endfacet
 facet normal  9.350162e-01 -3.546049e-01  0.000000e+00
   outer loop
     vertex  8.742735e+01 -5.982892e-01  2.500000e+01
     vertex  8.721364e+01 -1.161808e+00 -2.500000e+01
     vertex  8.742735e+01 -5.982892e-01 -2.500000e+01
   endloop
 endfacet
 facet normal  9.350162e-01 -3.546049e-01  0.000000e+00
   outer loop
     vertex  8.742735e+01 -5.982892e-01  2.500000e+01
     vertex  8.721364e+01 -1.161808e+00  2.500000e+01
     vertex  8.721364e+01 -1.161808e+00 -2.500000e+01
   endloop
 endfacet
 facet normal  9.927089e-01 -1.205367e-01  0.000000e+00
   outer loop
     vertex  8.750000e+01 -6.123234e-16  2.500000e+01
     vertex  8.742735e+01 -5.982892e-01 -2.500000e+01
     vertex  8.750000e+01 -6.123234e-16 -2.500000e+01
   endloop
 endfacet
 facet normal  9.927089e-01 -1.205367e-01  0.000000e+00
   outer loop
     vertex  8.750000e+01 -6.123234e-16  2.500000e+01
     vertex  8.742735e+01 -5.982892e-01  2.500000e+01
     vertex  8.742735e+01 -5.982892e-01 -2.500000e+01
   endloop
 endfacet
 facet normal  0.000000e+00  0.000000e+00  1.000000e+00
   outer loop
     vertex  8.411349e+01 -2.337541e+00  2.500000e+01
     vertex  8.312872e+01 -1.657807e+00  2.500000e+01
     vertex  8.357984e+01 -2.057460e+00  2.500000e+01
   endloop
 endfacet
 facet normal  0.000000e+00  0.000000e+00  1.000000e+00
   outer loop
     vertex  8.588651e+01 -2.337541e+00  2.500000e+01
     vertex  8.469866e+01 -2.481772e+00  2.500000e+01
     vertex  8.530134e+01 -2.481772e+00  2.500000e+01
   endloop
 endfacet
 facet normal  0.000000e+00  0.000000e+00  1.000000e+00
   outer loop
     vertex  8.721364e+01 -1.161808e+00  2.500000e+01
     vertex  8.588651e+01 -2.337541e+00  2.500000e+01
     vertex  8.642016e+01 -2.057460e+00  2.500000e+01
   endloop
 endfacet
 facet normal  0.000000e+00  0.000000e+00  1.000000e+00
   outer loop
     vertex  8.721364e+01 -1.161808e+00  2.500000e+01
     vertex  8.642016e+01 -2.057460e+00  2.500000e+01
     vertex  8.687128e+01 -1.657807e+00  2.500000e+01
   endloop
 endfacet
 facet normal  0.000000e+00  0.000000e+00  1.000000e+00
   outer loop
     vertex  8.721364e+01 -1.161808e+00  2.500000e+01
     vertex  8.469866e+01 -2.481772e+00  2.500000e+01
     vertex  8.588651e+01 -2.337541e+00  2.500000e+01
   endloop
 endfacet
 facet normal  0.000000e+00  0.000000e+00  1.000000e+00
   outer loop
     vertex  8.411349e+01  2.337541e+00  2.500000e+01
     vertex  8.357984e+01  2.057460e+00  2.500000e+01
     vertex  8.312872e+01  1.657807e+00  2.500000e+01
   endloop
 endfacet
 facet normal  0.000000e+00  0.000000e+00  1.000000e+00
   outer loop
     vertex  8.411349e+01  2.337541e+00  2.500000e+01
     vertex  8.312872e+01  1.657807e+00  2.500000e+01
     vertex  8.278636e+01  1.161808e+00  2.500000e+01
   endloop
 endfacet
 facet normal  0.000000e+00  0.000000e+00  1.000000e+00
   outer loop
     vertex  8.750000e+01 -6.123234e-16  2.500000e+01
     vertex  8.721364e+01 -1.161808e+00  2.500000e+01
     vertex  8.742735e+01 -5.982892e-01  2.500000e+01
   endloop
 endfacet
 facet normal  0.000000e+00  0.000000e+00  1.000000e+00
   outer loop
     vertex  8.588651e+01  2.337541e+00  2.500000e+01
     vertex  8.530134e+01  2.481772e+00  2.500000e+01
     vertex  8.469866e+01  2.481772e+00  2.500000e+01
   endloop
 endfacet
 facet normal  0.000000e+00  0.000000e+00  1.000000e+00
   outer loop
     vertex  8.642016e+01  2.057460e+00  2.500000e+01
     vertex  8.469866e+01  2.481772e+00  2.500000e+01
     vertex  8.411349e+01  2.337541e+00  2.500000e+01
   endloop
 endfacet
 facet normal  0.000000e+00  0.000000e+00  1.000000e+00
   outer loop
     vertex  8.642016e+01  2.057460e+00  2.500000e+01
     vertex  8.588651e+01  2.337541e+00  2.500000e+01
     vertex  8.469866e+01  2.481772e+00  2.500000e+01
   endloop
 endfacet
 facet normal  0.000000e+00  0.000000e+00  1.000000e+00
   outer loop
     vertex  8.687128e+01  1.657807e+00  2.500000e+01
     vertex  8.750000e+01 -6.123234e-16  2.500000e+01
     vertex  8.742735e+01  5.982892e-01  2.500000e+01
   endloop
 endfacet
 facet normal  0.000000e+00  0.000000e+00  1.000000e+00
   outer loop
     vertex  8.687128e+01  1.657807e+00  2.500000e+01
     vertex  8.742735e+01  5.982892e-01  2.500000e+01
     vertex  8.721364e+01  1.161808e+00  2.500000e+01
   endloop
 endfacet
 facet normal  0.000000e+00  0.000000e+00  1.000000e+00
   outer loop
     vertex  8.687128e+01  1.657807e+00  2.500000e+01
     vertex  8.278636e+01  1.161808e+00  2.500000e+01
     vertex  8.257265e+01  5.982892e-01  2.500000e+01
   endloop
 endfacet
 facet normal  0.000000e+00  0.000000e+00  1.000000e+00
   outer loop
     vertex  8.687128e+01  1.657807e+00  2.500000e+01
     vertex  8.257265e+01  5.982892e-01  2.500000e+01
     vertex  8.250000e+01  2.526608e-15  2.500000e+01
   endloop
 endfacet
 facet normal  0.000000e+00  0.000000e+00  1.000000e+00
   outer loop
     vertex  8.687128e+01  1.657807e+00  2.500000e+01
     vertex  8.250000e+01  2.526608e-15  2.500000e+01
     vertex  8.257265e+01 -5.982892e-01  2.500000e+01
   endloop
 endfacet
 facet normal  0.000000e+00  0.000000e+00  1.000000e+00
   outer loop
     vertex  8.687128e+01  1.657807e+00  2.500000e+01
     vertex  8.257265e+01 -5.982892e-01  2.500000e+01
     vertex  8.278636e+01 -1.161808e+00  2.500000e+01
   endloop
 endfacet
 facet normal  0.000000e+00  0.000000e+00  1.000000e+00
   outer loop
     vertex  8.687128e+01  1.657807e+00  2.500000e+01
     vertex  8.278636e+01 -1.161808e+00  2.500000e+01
     vertex  8.312872e+01 -1.657807e+00  2.500000e+01
   endloop
 endfacet
 facet normal  0.000000e+00  0.000000e+00  1.000000e+00
   outer loop
     vertex  8.687128e+01  1.657807e+00  2.500000e+01
     vertex  8.411349e+01 -2.337541e+00  2.500000e+01
     vertex  8.469866e+01 -2.481772e+00  2.500000e+01
   endloop
 endfacet
 facet normal  0.000000e+00  0.000000e+00  1.000000e+00
   outer loop
     vertex  8.687128e+01  1.657807e+00  2.500000e+01
     vertex  8.312872e+01 -1.657807e+00  2.500000e+01
     vertex  8.411349e+01 -2.337541e+00  2.500000e+01
   endloop
 endfacet
 facet normal  0.000000e+00  0.000000e+00  1.000000e+00
   outer loop
     vertex  8.687128e+01  1.657807e+00  2.500000e+01
     vertex  8.721364e+01 -1.161808e+00  2.500000e+01
     vertex  8.750000e+01 -6.123234e-16  2.500000e+01
   endloop
 endfacet
 facet normal  0.000000e+00  0.000000e+00  1.000000e+00
   outer loop
     vertex  8.687128e+01  1.657807e+00  2.500000e+01
     vertex  8.469866e+01 -2.481772e+00  2.500000e+01
     vertex  8.721364e+01 -1.161808e+00  2.500000e+01
   endloop
 endfacet
 facet normal  0.000000e+00  0.000000e+00  1.000000e+00
   outer loop
     vertex  8.687128e+01  1.657807e+00  2.500000e+01
     vertex  8.411349e+01  2.337541e+00  2.500000e+01
     vertex  8.278636e+01  1.161808e+00  2.500000e+01
   endloop
 endfacet
 facet normal  0.000000e+00  0.000000e+00  1.000000e+00
   outer loop
     vertex  8.687128e+01  1.657807e+00  2.500000e+01
     vertex  8.642016e+01  2.057460e+00  2.500000e+01
     vertex  8.411349e+01  2.337541e+00  2.500000e+01
   endloop
 endfacet
 facet normal  0.000000e+00  0.000000e+00 -1.000000e+00
   outer loop
     vertex  8.411349e+01 -2.337541e+00 -2.500000e+01
     vertex  8.357984e+01 -2.057460e+00 -2.500000e+01
     vertex  8.312872e+01 -1.657807e+00 -2.500000e+01
   endloop
 endfacet
 facet normal  0.000000e+00  0.000000e+00 -1.000000e+00
   outer loop
     vertex  8.588651e+01 -2.337541e+00 -2.500000e+01
     vertex  8.530134e+01 -2.481772e+00 -2.500000e+01
     vertex  8.469866e+01 -2.481772e+00 -2.500000e+01
   endloop
 endfacet
 facet normal  0.000000e+00  0.000000e+00 -1.000000e+00
   outer loop
     vertex  8.721364e+01 -1.161808e+00 -2.500000e+01
     vertex  8.642016e+01 -2.057460e+00 -2.500000e+01
     vertex  8.588651e+01 -2.337541e+00 -2.500000e+01
   endloop
 endfacet
 facet normal  0.000000e+00  0.000000e+00 -1.000000e+00
   outer loop
     vertex  8.721364e+01 -1.161808e+00 -2.500000e+01
     vertex  8.687128e+01 -1.657807e+00 -2.500000e+01
     vertex  8.642016e+01 -2.057460e+00 -2.500000e+01
   endloop
 endfacet
 facet normal  0.000000e+00  0.000000e+00 -1.000000e+00
   outer loop
     vertex  8.721364e+01 -1.161808e+00 -2.500000e+01
     vertex  8.588651e+01 -2.337541e+00 -2.500000e+01
     vertex  8.469866e+01 -2.481772e+00 -2.500000e+01
   endloop
 endfacet
 facet normal  0.000000e+00  0.000000e+00 -1.000000e+00
   outer loop
     vertex  8.411349e+01  2.337541e+00 -2.500000e+01
     vertex  8.312872e+01  1.657807e+00 -2.500000e+01
     vertex  8.357984e+01  2.057460e+00 -2.500000e+01
   endloop
 endfacet
 facet normal  0.000000e+00  0.000000e+00 -1.000000e+00
   outer loop
     vertex  8.411349e+01  2.337541e+00 -2.500000e+01
     vertex  8.278636e+01  1.161808e+00 -2.500000e+01
     vertex  8.312872e+01  1.657807e+00 -2.500000e+01
   endloop
 endfacet
 facet normal  0.000000e+00  0.000000e+00 -1.000000e+00
   outer loop
     vertex  8.750000e+01 -6.123234e-16 -2.500000e+01
     vertex  8.742735e+01 -5.982892e-01 -2.500000e+01
     vertex  8.721364e+01 -1.161808e+00 -2.500000e+01
   endloop
 endfacet
 facet normal  0.000000e+00  0.000000e+00 -1.000000e+00
   outer loop
     vertex  8.588651e+01  2.337541e+00 -2.500000e+01
     vertex  8.469866e+01  2.481772e+00 -2.500000e+01
     vertex  8.530134e+01  2.481772e+00 -2.500000e+01
   endloop
 endfacet
 facet normal  0.000000e+00  0.000000e+00 -1.000000e+00
   outer loop
     vertex  8.642016e+01  2.057460e+00 -2.500000e+01
     vertex  8.411349e+01  2.337541e+00 -2.500000e+01
     vertex  8.469866e+01  2.481772e+00 -2.500000e+01
   endloop
 endfacet
 facet normal  0.000000e+00  0.000000e+00 -1.000000e+00
   outer loop
     vertex  8.642016e+01  2.057460e+00 -2.500000e+01
     vertex  8.469866e+01  2.481772e+00 -2.500000e+01
     vertex  8.588651e+01  2.337541e+00 -2.500000e+01
   endloop
 endfacet
 facet normal  0.000000e+00  0.000000e+00 -1.000000e+00
   outer loop
     vertex  8.687128e+01  1.657807e+00 -2.500000e+01
     vertex  8.742735e+01  5.982892e-01 -2.500000e+01
     vertex  8.750000e+01 -6.123234e-16 -2.500000e+01
   endloop
 endfacet
 facet normal  0.000000e+00  0.000000e+00 -1.000000e+00
   outer loop
     vertex  8.687128e+01  1.657807e+00 -2.500000e+01
     vertex  8.721364e+01  1.161808e+00 -2.500000e+01
     vertex  8.742735e+01  5.982892e-01 -2.500000e+01
   endloop
 endfacet
 facet normal  0.000000e+00  0.000000e+00 -1.000000e+00
   outer loop
     vertex  8.687128e+01  1.657807e+00 -2.500000e+01
     vertex  8.257265e+01  5.982892e-01 -2.500000e+01
     vertex  8.278636e+01  1.161808e+00 -2.500000e+01
   endloop
 endfacet
 facet normal  0.000000e+00  0.000000e+00 -1.000000e+00
   outer loop
     vertex  8.687128e+01  1.657807e+00 -2.500000e+01
     vertex  8.250000e+01  2.526608e-15 -2.500000e+01
     vertex  8.257265e+01  5.982892e-01 -2.500000e+01
   endloop
 endfacet
 facet normal  0.000000e+00  0.000000e+00 -1.000000e+00
   outer loop
     vertex  8.687128e+01  1.657807e+00 -2.500000e+01
     vertex  8.257265e+01 -5.982892e-01 -2.500000e+01
     vertex  8.250000e+01  2.526608e-15 -2.500000e+01
   endloop
 endfacet
 facet normal  0.000000e+00  0.000000e+00 -1.000000e+00
   outer loop
     vertex  8.687128e+01  1.657807e+00 -2.500000e+01
     vertex  8.278636e+01 -1.161808e+00 -2.500000e+01
     vertex  8.257265e+01 -5.982892e-01 -2.500000e+01
   endloop
 endfacet
 facet normal  0.000000e+00  0.000000e+00 -1.000000e+00
   outer loop
     vertex  8.687128e+01  1.657807e+00 -2.500000e+01
     vertex  8.312872e+01 -1.657807e+00 -2.500000e+01
     vertex  8.278636e+01 -1.161808e+00 -2.500000e+01
   endloop
 endfacet
 facet normal  0.000000e+00  0.000000e+00 -1.000000e+00
   outer loop
     vertex  8.687128e+01  1.657807e+00 -2.500000e+01
     vertex  8.469866e+01 -2.481772e+00 -2.500000e+01
     vertex  8.411349e+01 -2.337541e+00 -2.500000e+01
   endloop
 endfacet
 facet normal  0.000000e+00  0.000000e+00 -1.000000e+00
   outer loop
     vertex  8.687128e+01  1.657807e+00 -2.500000e+01
     vertex  8.411349e+01 -2.337541e+00 -2.500000e+01
     vertex  8.312872e+01 -1.657807e+00 -2.500000e+01
   endloop
 endfacet
 facet normal  0.000000e+00  0.000000e+00 -1.000000e+00
   outer loop
     vertex  8.687128e+01  1.657807e+00 -2.500000e+01
     vertex  8.750000e+01 -6.123234e-16 -2.500000e+01
     vertex  8.721364e+01 -1.161808e+00 -2.500000e+01
   endloop
 endfacet
 facet normal  0.000000e+00 -0.000000e+00 -1.000000e+00
   outer loop
     vertex  8.687128e+01  1.657807e+00 -2.500000e+01
     vertex  8.721364e+01 -1.161808e+00 -2.500000e+01
     vertex  8.469866e+01 -2.481772e+00 -2.500000e+01
   endloop
 endfacet
 facet normal -0.000000e+00  0.000000e+00 -1.000000e+00
   outer loop
     vertex  8.687128e+01  1.657807e+00 -2.500000e+01
     vertex  8.278636e+01  1.161808e+00 -2.500000e+01
     vertex  8.411349e+01  2.337541e+00 -2.500000e+01
   endloop
 endfacet
 facet normal  0.000000e+00  0.000000e+00 -1.000000e+00
   outer loop
     vertex  8.687128e+01  1.657807e+00 -2.500000e+01
     vertex  8.411349e+01  2.337541e+00 -2.500000e+01
     vertex  8.642016e+01  2.057460e+00 -2.500000e+01
   endloop
 endfacet
 facet normal  0.000000e+00  1.205367e-01 -9.927089e-01
   outer loop
     vertex  2.500000e+01  5.982892e-01  8.257265e+01
     vertex  2.500000e+01 -6.123234e-16  8.250000e+01
     vertex -2.500000e+01 -6.123234e-16  8.250000e+01
   endloop
 endfacet
 facet normal  0.000000e+00  1.205367e-01 -9.927089e-01
   outer loop
     vertex  2.500000e+01  5.982892e-01  8.257265e+01
     vertex -2.500000e+01 -6.123234e-16  8.250000e+01
     vertex -2.500000e+01  5.982892e-01  8.257265e+01
   endloop
 endfacet
 facet normal  2.657476e-16  3.546049e-01 -9.350162e-01
   outer loop
     vertex  2.500000e+01  1.161808e+00  8.278636e+01
     vertex -2.500000e+01  5.982892e-01  8.257265e+01
     vertex -2.500000e+01  1.161808e+00  8.278636e+01
   endloop
 endfacet
 facet normal  0.000000e+00  3.546049e-01 -9.350162e-01
   outer loop
     vertex  2.500000e+01  1.161808e+00  8.278636e+01
     vertex  2.500000e+01  5.982892e-01  8.257265e+01
     vertex -2.500000e+01  5.982892e-01  8.257265e+01
   endloop
 endfacet
 facet normal  0.000000e+00  5.680647e-01 -8.229839e-01
   outer loop
     vertex  2.500000e+01  1.657807e+00  8.312872e+01
     vertex -2.500000e+01  1.161808e+00  8.278636e+01
     vertex -2.500000e+01  1.657807e+00  8.312872e+01
   endloop
 endfacet
 facet normal  2.339509e-16  5.680647e-01 -8.229839e-01
   outer loop
     vertex  2.500000e+01  1.657807e+00  8.312872e+01
     vertex  2.500000e+01  1.161808e+00  8.278636e+01
     vertex -2.500000e+01  1.161808e+00  8.278636e+01
   endloop
 endfacet
 facet normal  1.884708e-16  7.485107e-01 -6.631227e-01
   outer loop
     vertex  2.500000e+01  2.057460e+00  8.357984e+01
     vertex -2.500000e+01  1.657807e+00  8.312872e+01
     vertex -2.500000e+01  2.057460e+00  8.357984e+01
   endloop
 endfacet
 facet normal  0.000000e+00  7.485107e-01 -6.631227e-01
   outer loop
     vertex  2.500000e+01  2.057460e+00  8.357984e+01
     vertex  2.500000e+01  1.657807e+00  8.312872e+01
     vertex -2.500000e+01  1.657807e+00  8.312872e+01
   endloop
 endfacet
 facet normal  0.000000e+00  8.854560e-01 -4.647232e-01
   outer loop
     vertex  2.500000e+01  2.337541e+00  8.411349e+01
     vertex -2.500000e+01  2.057460e+00  8.357984e+01
     vertex -2.500000e+01  2.337541e+00  8.411349e+01
   endloop
 endfacet
 facet normal  1.326336e-16  8.854560e-01 -4.647232e-01
   outer loop
     vertex  2.500000e+01  2.337541e+00  8.411349e+01
     vertex  2.500000e+01  2.057460e+00  8.357984e+01
     vertex -2.500000e+01  2.057460e+00  8.357984e+01
   endloop
 endfacet
 facet normal  0.000000e+00  9.709418e-01 -2.393157e-01
   outer loop
     vertex  2.500000e+01  2.481772e+00  8.469866e+01
     vertex -2.500000e+01  2.337541e+00  8.411349e+01
     vertex -2.500000e+01  2.481772e+00  8.469866e+01
   endloop
 endfacet
 facet normal  0.000000e+00  9.709418e-01 -2.393157e-01
   outer loop
     vertex  2.500000e+01  2.481772e+00  8.469866e+01
     vertex  2.500000e+01  2.337541e+00  8.411349e+01
     vertex -2.500000e+01  2.337541e+00  8.411349e+01
   endloop
 endfacet
 facet normal  0.000000e+00  1.000000e+00  0.000000e+00
   outer loop
     vertex  2.500000e+01  2.481772e+00  8.530134e+01
     vertex -2.500000e+01  2.481772e+00  8.469866e+01
     vertex -2.500000e+01  2.481772e+00  8.530134e+01
   endloop
 endfacet
 facet normal -6.801760e-17  9.709418e-01  2.393157e-01
   outer loop
     vertex  2.500000e+01  2.481772e+00  8.530134e+01
     vertex -2.500000e+01  2.481772e+00  8.530134e+01
     vertex -2.500000e+01  2.337541e+00  8.588651e+01
   endloop
 endfacet
 facet normal  0.000000e+00  1.000000e+00  0.000000e+00
   outer loop
     vertex  2.500000e+01  2.481772e+00  8.530134e+01
     vertex  2.500000e+01  2.481772e+00  8.469866e+01
     vertex -2.500000e+01  2.481772e+00  8.469866e+01
   endloop
 endfacet
 facet normal  0.000000e+00  9.709418e-01  2.393157e-01
   outer loop
     vertex  2.500000e+01  2.337541e+00  8.588651e+01
     vertex  2.500000e+01  2.481772e+00  8.530134e+01
     vertex -2.500000e+01  2.337541e+00  8.588651e+01
   endloop
 endfacet
 facet normal -1.320823e-16  8.854560e-01  4.647232e-01
   outer loop
     vertex  2.500000e+01  2.057460e+00  8.642016e+01
     vertex -2.500000e+01  2.337541e+00  8.588651e+01
     vertex -2.500000e+01  2.057460e+00  8.642016e+01
   endloop
 endfacet
 facet normal  0.000000e+00  8.854560e-01  4.647232e-01
   outer loop
     vertex  2.500000e+01  2.057460e+00  8.642016e+01
     vertex  2.500000e+01  2.337541e+00  8.588651e+01
     vertex -2.500000e+01  2.337541e+00  8.588651e+01
   endloop
 endfacet
 facet normal -1.884708e-16  7.485107e-01  6.631227e-01
   outer loop
     vertex  2.500000e+01  1.657807e+00  8.687128e+01
     vertex -2.500000e+01  2.057460e+00  8.642016e+01
     vertex -2.500000e+01  1.657807e+00  8.687128e+01
   endloop
 endfacet
 facet normal -1.888186e-16  7.485107e-01  6.631227e-01
   outer loop
     vertex  2.500000e+01  1.657807e+00  8.687128e+01
     vertex  2.500000e+01  2.057460e+00  8.642016e+01
     vertex -2.500000e+01  2.057460e+00  8.642016e+01
   endloop
 endfacet
 facet normal -2.339061e-16  5.680647e-01  8.229839e-01
   outer loop
     vertex  2.500000e+01  1.161808e+00  8.721364e+01
     vertex -2.500000e+01  1.657807e+00  8.687128e+01
     vertex -2.500000e+01  1.161808e+00  8.721364e+01
   endloop
 endfacet
 facet normal -2.339509e-16  5.680647e-01  8.229839e-01
   outer loop
     vertex  2.500000e+01  1.161808e+00  8.721364e+01
     vertex  2.500000e+01  1.657807e+00  8.687128e+01
     vertex -2.500000e+01  1.657807e+00  8.687128e+01
   endloop
 endfacet
 facet normal -2.657277e-16  3.546049e-01  9.350162e-01
   outer loop
     vertex  2.500000e+01  5.982892e-01  8.742735e+01
     vertex  2.500000e+01  1.161808e+00  8.721364e+01
     vertex -2.500000e+01  1.161808e+00  8.721364e+01
   endloop
 endfacet
 facet normal  0.000000e+00  3.546049e-01  9.350162e-01
   outer loop
     vertex  2.500000e+01  5.982892e-01  8.742735e+01
     vertex -2.500000e+01  1.161808e+00  8.721364e+01
     vertex -2.500000e+01  5.982892e-01  8.742735e+01
   endloop
 endfacet
 facet normal  0.000000e+00  1.205367e-01  9.927089e-01
   outer loop
     vertex  2.500000e+01  2.526608e-15  8.750000e+01
     vertex  2.500000e+01  5.982892e-01  8.742735e+01
     vertex -2.500000e+01  5.982892e-01  8.742735e+01
   endloop
 endfacet
 facet normal  0.000000e+00  1.205367e-01  9.927089e-01
   outer loop
     vertex  2.500000e+01  2.526608e-15  8.750000e+01
     vertex -2.500000e+01  5.982892e-01  8.742735e+01
     vertex -2.500000e+01  2.526608e-15  8.750000e+01
   endloop
 endfacet
 facet normal  0.000000e+00 -1.205367e-01  9.927089e-01
   outer loop
     vertex  2.500000e+01 -5.982892e-01  8.742735e+01
     vertex  2.500000e+01  2.526608e-15  8.750000e+01
     vertex -2.500000e+01  2.526608e-15  8.750000e+01
   endloop
 endfacet
 facet normal  0.000000e+00 -1.205367e-01  9.927089e-01
   outer loop
     vertex  2.500000e+01 -5.982892e-01  8.742735e+01
     vertex -2.500000e+01  2.526608e-15  8.750000e+01
     vertex -2.500000e+01 -5.982892e-01  8.742735e+01
   endloop
 endfacet
 facet normal  0.000000e+00 -3.546049e-01  9.350162e-01
   outer loop
     vertex  2.500000e+01 -1.161808e+00  8.721364e+01
     vertex  2.500000e+01 -5.982892e-01  8.742735e+01
     vertex -2.500000e+01 -5.982892e-01  8.742735e+01
   endloop
 endfacet
 facet normal  0.000000e+00 -3.546049e-01  9.350162e-01
   outer loop
     vertex  2.500000e+01 -1.161808e+00  8.721364e+01
     vertex -2.500000e+01 -5.982892e-01  8.742735e+01
     vertex -2.500000e+01 -1.161808e+00  8.721364e+01
   endloop
 endfacet
 facet normal  0.000000e+00 -5.680647e-01  8.229839e-01
   outer loop
     vertex  2.500000e+01 -1.657807e+00  8.687128e+01
     vertex  2.500000e+01 -1.161808e+00  8.721364e+01
     vertex -2.500000e+01 -1.161808e+00  8.721364e+01
   endloop
 endfacet
 facet normal -2.339061e-16 -5.680647e-01  8.229839e-01
   outer loop
     vertex  2.500000e+01 -1.657807e+00  8.687128e+01
     vertex -2.500000e+01 -1.161808e+00  8.721364e+01
     vertex -2.500000e+01 -1.657807e+00  8.687128e+01
   endloop
 endfacet
 facet normal -1.888186e-16 -7.485107e-01  6.631227e-01
   outer loop
     vertex  2.500000e+01 -2.057460e+00  8.642016e+01
     vertex  2.500000e+01 -1.657807e+00  8.687128e+01
     vertex -2.500000e+01 -1.657807e+00  8.687128e+01
   endloop
 endfacet
 facet normal  0.000000e+00 -7.485107e-01  6.631227e-01
   outer loop
     vertex  2.500000e+01 -2.057460e+00  8.642016e+01
     vertex -2.500000e+01 -1.657807e+00  8.687128e+01
     vertex -2.500000e+01 -2.057460e+00  8.642016e+01
   endloop
 endfacet
 facet normal  0.000000e+00 -8.854560e-01  4.647232e-01
   outer loop
     vertex  2.500000e+01 -2.337541e+00  8.588651e+01
     vertex  2.500000e+01 -2.057460e+00  8.642016e+01
     vertex -2.500000e+01 -2.057460e+00  8.642016e+01
   endloop
 endfacet
 facet normal -1.320823e-16 -8.854560e-01  4.647232e-01
   outer loop
     vertex  2.500000e+01 -2.337541e+00  8.588651e+01
     vertex -2.500000e+01 -2.057460e+00  8.642016e+01
     vertex -2.500000e+01 -2.337541e+00  8.588651e+01
   endloop
 endfacet
 facet normal -6.769839e-17 -9.709418e-01  2.393157e-01
   outer loop
     vertex  2.500000e+01 -2.481772e+00  8.530134e+01
     vertex  2.500000e+01 -2.337541e+00  8.588651e+01
     vertex -2.500000e+01 -2.337541e+00  8.588651e+01
   endloop
 endfacet
 facet normal  0.000000e+00 -9.709418e-01  2.393157e-01
   outer loop
     vertex  2.500000e+01 -2.481772e+00  8.530134e+01
     vertex -2.500000e+01 -2.337541e+00  8.588651e+01
     vertex -2.500000e+01 -2.481772e+00  8.530134e+01
   endloop
 endfacet
 facet normal  0.000000e+00 -1.000000e+00  2.947413e-15
   outer loop
     vertex  2.500000e+01 -2.481772e+00  8.469866e+01
     vertex  2.500000e+01 -2.481772e+00  8.530134e+01
     vertex -2.500000e+01 -2.481772e+00  8.530134e+01
   endloop
 endfacet
 facet normal -8.377051e-31 -1.000000e+00  2.947413e-15
   outer loop
     vertex  2.500000e+01 -2.481772e+00  8.469866e+01
     vertex -2.500000e+01 -2.481772e+00  8.530134e+01
     vertex -2.500000e+01 -2.481772e+00  8.469866e+01
   endloop
 endfacet
 facet normal  6.815892e-17 -9.709418e-01 -2.393157e-01
   outer loop
     vertex  2.500000e+01 -2.337541e+00  8.411349e+01
     vertex  2.500000e+01 -2.481772e+00  8.469866e+01
     vertex -2.500000e+01 -2.481772e+00  8.469866e+01
   endloop
 endfacet
 facet normal  6.801760e-17 -9.709418e-01 -2.393157e-01
   outer loop
     vertex  2.500000e+01 -2.337541e+00  8.411349e+01
     vertex -2.500000e+01 -2.481772e+00  8.469866e+01
     vertex -2.500000e+01 -2.337541e+00  8.411349e+01
   endloop
 endfacet
 facet normal  1.317125e-16 -8.854560e-01 -4.647232e-01
   outer loop
     vertex  2.500000e+01 -2.057460e+00  8.357984e+01
     vertex  2.500000e+01 -2.337541e+00  8.411349e+01
     vertex -2.500000e+01 -2.337541e+00  8.411349e+01
   endloop
 endfacet
 facet normal -0.000000e+00 -8.854560e-01 -4.647232e-01
   outer loop
     vertex  2.500000e+01 -2.057460e+00  8.357984e+01
     vertex -2.500000e+01 -2.337541e+00  8.411349e+01
     vertex -2.500000e+01 -2.057460e+00  8.357984e+01
   endloop
 endfacet
 facet normal  0.000000e+00 -7.485107e-01 -6.631227e-01
   outer loop
     vertex  2.500000e+01 -1.657807e+00  8.312872e+01
     vertex  2.500000e+01 -2.057460e+00  8.357984e+01
     vertex -2.500000e+01 -2.057460e+00  8.357984e+01
   endloop
 endfacet
 facet normal  1.884708e-16 -7.485107e-01 -6.631227e-01
   outer loop
     vertex  2.500000e+01 -1.657807e+00  8.312872e+01
     vertex -2.500000e+01 -2.057460e+00  8.357984e+01
     vertex -2.500000e+01 -1.657807e+00  8.312872e+01
   endloop
 endfacet
 facet normal  2.339061e-16 -5.680647e-01 -8.229839e-01
   outer loop
     vertex  2.500000e+01 -1.657807e+00  8.312872e+01
     vertex -2.500000e+01 -1.657807e+00  8.312872e+01
     vertex -2.500000e+01 -1.161808e+00  8.278636e+01
   endloop
 endfacet
 facet normal -0.000000e+00 -5.680647e-01 -8.229839e-01
   outer loop
     vertex  2.500000e+01 -1.161808e+00  8.278636e+01
     vertex  2.500000e+01 -1.657807e+00  8.312872e+01
     vertex -2.500000e+01 -1.161808e+00  8.278636e+01
   endloop
 endfacet
 facet normal  2.657476e-16 -3.546049e-01 -9.350162e-01
   outer loop
     vertex  2.500000e+01 -5.982892e-01  8.257265e+01
     vertex -2.500000e+01 -1.161808e+00  8.278636e+01
     vertex -2.500000e+01 -5.982892e-01  8.257265e+01
   endloop
 endfacet
 facet normal  0.000000e+00 -3.546049e-01 -9.350162e-01
   outer loop
     vertex  2.500000e+01 -5.982892e-01  8.257265e+01
     vertex  2.500000e+01 -1.161808e+00  8.278636e+01
     vertex -2.500000e+01 -1.161808e+00  8.278636e+01
   endloop
 endfacet
 facet normal -0.000000e+00 -1.205367e-01 -9.927089e-01
   outer loop
     vertex  2.500000e+01 -6.123234e-16  8.250000e+01
     vertex -2.500000e+01 -5.982892e-01  8.257265e+01
     vertex -2.500000e+01 -6.123234e-16  8.250000e+01
   endloop
 endfacet
 facet normal  2.820766e-16 -1.205367e-01 -9.927089e-01
   outer loop
     vertex  2.500000e+01 -6.123234e-16  8.250000e+01
     vertex  2.500000e+01 -5.982892e-01  8.257265e+01
     vertex -2.500000e+01 -5.982892e-01  8.257265e+01
   endloop
 endfacet
 facet normal  1.000000e+00  0.000000e+00  0.000000e+00
   outer loop
     vertex  2.500000e+01 -2.337541e+00  8.588651e+01
     vertex  2.500000e+01 -1.657807e+00  8.687128e+01
     vertex  2.500000e+01 -2.057460e+00  8.642016e+01
   endloop
 endfacet
 facet normal  1.000000e+00  0.000000e+00  0.000000e+00
   outer loop
     vertex  2.500000e+01 -2.337541e+00  8.411349e+01
     vertex  2.500000e+01 -2.481772e+00  8.530134e+01
     vertex  2.500000e+01 -2.481772e+00  8.469866e+01
   endloop
 endfacet
 facet normal  1.000000e+00  0.000000e+00  0.000000e+00
   outer loop
     vertex  2.500000e+01 -1.161808e+00  8.278636e+01
     vertex  2.500000e+01 -2.337541e+00  8.411349e+01
     vertex  2.500000e+01 -2.057460e+00  8.357984e+01
   endloop
 endfacet
 facet normal  1.000000e+00  0.000000e+00  0.000000e+00
   outer loop
     vertex  2.500000e+01 -1.161808e+00  8.278636e+01
     vertex  2.500000e+01 -2.057460e+00  8.357984e+01
     vertex  2.500000e+01 -1.657807e+00  8.312872e+01
   endloop
 endfacet
 facet normal  1.000000e+00  0.000000e+00  0.000000e+00
   outer loop
     vertex  2.500000e+01 -1.161808e+00  8.278636e+01
     vertex  2.500000e+01 -2.481772e+00  8.530134e+01
     vertex  2.500000e+01 -2.337541e+00  8.411349e+01
   endloop
 endfacet
 facet normal  1.000000e+00  0.000000e+00  0.000000e+00
   outer loop
     vertex  2.500000e+01  2.337541e+00  8.588651e+01
     vertex  2.500000e+01  2.057460e+00  8.642016e+01
     vertex  2.500000e+01  1.657807e+00  8.687128e+01
   endloop
 endfacet
 facet normal  1.000000e+00  0.000000e+00  0.000000e+00
   outer loop
     vertex  2.500000e+01  2.337541e+00  8.588651e+01
     vertex  2.500000e+01  1.657807e+00  8.687128e+01
     vertex  2.500000e+01  1.161808e+00  8.721364e+01
   endloop
 endfacet
 facet normal  1.000000e+00  0.000000e+00  0.000000e+00
   outer loop
     vertex  2.500000e+01 -6.123234e-16  8.250000e+01
     vertex  2.500000e+01 -1.161808e+00  8.278636e+01
     vertex  2.500000e+01 -5.982892e-01  8.257265e+01
   endloop
 endfacet
 facet normal  1.000000e+00  0.000000e+00  0.000000e+00
   outer loop
     vertex  2.500000e+01  2.337541e+00  8.411349e+01
     vertex  2.500000e+01  2.481772e+00  8.469866e+01
     vertex  2.500000e+01  2.481772e+00  8.530134e+01
   endloop
 endfacet
 facet normal  1.000000e+00  0.000000e+00  0.000000e+00
   outer loop
     vertex  2.500000e+01  2.057460e+00  8.357984e+01
     vertex  2.500000e+01  2.481772e+00  8.530134e+01
     vertex  2.500000e+01  2.337541e+00  8.588651e+01
   endloop
 endfacet
 facet normal  1.000000e+00  0.000000e+00  0.000000e+00
   outer loop
     vertex  2.500000e+01  2.057460e+00  8.357984e+01
     vertex  2.500000e+01  2.337541e+00  8.411349e+01
     vertex  2.500000e+01  2.481772e+00  8.530134e+01
   endloop
 endfacet
 facet normal  1.000000e+00  0.000000e+00  0.000000e+00
   outer loop
     vertex  2.500000e+01  1.657807e+00  8.312872e+01
     vertex  2.500000e+01 -6.123234e-16  8.250000e+01
     vertex  2.500000e+01  5.982892e-01  8.257265e+01
   endloop
 endfacet
 facet normal  1.000000e+00  0.000000e+00  0.000000e+00
   outer loop
     vertex  2.500000e+01  1.657807e+00  8.312872e+01
     vertex  2.500000e+01  5.982892e-01  8.257265e+01
     vertex  2.500000e+01  1.161808e+00  8.278636e+01
   endloop
 endfacet
 facet normal  1.000000e+00  0.000000e+00  0.000000e+00
   outer loop
     vertex  2.500000e+01  1.657807e+00  8.312872e+01
     vertex  2.500000e+01  1.161808e+00  8.721364e+01
     vertex  2.500000e+01  5.982892e-01  8.742735e+01
   endloop
 endfacet
 facet normal  1.000000e+00  0.000000e+00  0.000000e+00
   outer loop
     vertex  2.500000e+01  1.657807e+00  8.312872e+01
     vertex  2.500000e+01  5.982892e-01  8.742735e+01
     vertex  2.500000e+01  2.526608e-15  8.750000e+01
   endloop
 endfacet
 facet normal  1.000000e+00  0.000000e+00  0.000000e+00
   outer loop
     vertex  2.500000e+01  1.657807e+00  8.312872e+01
     vertex  2.500000e+01  2.526608e-15  8.750000e+01
     vertex  2.500000e+01 -5.982892e-01  8.742735e+01
   endloop
 endfacet
 facet normal  1.000000e+00  0.000000e+00  0.000000e+00
   outer loop
     vertex  2.500000e+01  1.657807e+00  8.312872e+01
     vertex  2.500000e+01 -5.982892e-01  8.742735e+01
     vertex  2.500000e+01 -1.161808e+00  8.721364e+01
   endloop
 endfacet
 facet normal  1.000000e+00  0.000000e+00  0.000000e+00
   outer loop
     vertex  2.500000e+01  1.657807e+00  8.312872e+01
     vertex  2.500000e+01 -1.161808e+00  8.721364e+01
     vertex  2.500000e+01 -1.657807e+00  8.687128e+01
   endloop
 endfacet
 facet normal  1.000000e+00  0.000000e+00  0.000000e+00
   outer loop
     vertex  2.500000e+01  1.657807e+00  8.312872e+01
     vertex  2.500000e+01 -2.337541e+00  8.588651e+01
     vertex  2.500000e+01 -2.481772e+00  8.530134e+01
   endloop
 endfacet
 facet normal  1.000000e+00  0.000000e+00  0.000000e+00
   outer loop
     vertex  2.500000e+01  1.657807e+00  8.312872e+01
     vertex  2.500000e+01 -1.657807e+00  8.687128e+01
     vertex  2.500000e+01 -2.337541e+00  8.588651e+01
   endloop
 endfacet
 facet normal  1.000000e+00  0.000000e+00  0.000000e+00
   outer loop
     vertex  2.500000e+01  1.657807e+00  8.312872e+01
     vertex  2.500000e+01 -1.161808e+00  8.278636e+01
     vertex  2.500000e+01 -6.123234e-16  8.250000e+01
   endloop
 endfacet
 facet normal  1.000000e+00  0.000000e+00  0.000000e+00
   outer loop
     vertex  2.500000e+01  1.657807e+00  8.312872e+01
     vertex  2.500000e+01 -2.481772e+00  8.530134e+01
     vertex  2.500000e+01 -1.161808e+00  8.278636e+01
   endloop
 endfacet
 facet normal  1.000000e+00  0.000000e+00 -0.000000e+00
   outer loop
     vertex  2.500000e+01  1.657807e+00  8.312872e+01
     vertex  2.500000e+01  2.337541e+00  8.588651e+01
     vertex  2.500000e+01  1.161808e+00  8.721364e+01
   endloop
 endfacet
 facet normal  1.000000e+00  0.000000e+00  0.000000e+00
   outer loop
     vertex  2.500000e+01  1.657807e+00  8.312872e+01
     vertex  2.500000e+01  2.057460e+00  8.357984e+01
     vertex  2.500000e+01  2.337541e+00  8.588651e+01
   endloop
 endfacet
 facet normal -1.000000e+00  0.000000e+00  0.000000e+00
   outer loop
     vertex -2.500000e+01 -2.337541e+00  8.588651e+01
     vertex -2.500000e+01 -2.057460e+00  8.642016e+01
     vertex -2.500000e+01 -1.657807e+00  8.687128e+01
   endloop
 endfacet
 facet normal -1.000000e+00  0.000000e+00  0.000000e+00
   outer loop
     vertex -2.500000e+01 -2.337541e+00  8.411349e+01
     vertex -2.500000e+01 -2.481772e+00  8.469866e+01
     vertex -2.500000e+01 -2.481772e+00  8.530134e+01
   endloop
 endfacet
 facet normal -1.000000e+00  0.000000e+00  0.000000e+00
   outer loop
     vertex -2.500000e+01 -1.161808e+00  8.278636e+01
     vertex -2.500000e+01 -2.057460e+00  8.357984e+01
     vertex -2.500000e+01 -2.337541e+00  8.411349e+01
   endloop
 endfacet
 facet normal -1.000000e+00  0.000000e+00  0.000000e+00
   outer loop
     vertex -2.500000e+01 -1.161808e+00  8.278636e+01
     vertex -2.500000e+01 -1.657807e+00  8.312872e+01
     vertex -2.500000e+01 -2.057460e+00  8.357984e+01
   endloop
 endfacet
 facet normal -1.000000e+00  0.000000e+00  0.000000e+00
   outer loop
     vertex -2.500000e+01 -1.161808e+00  8.278636e+01
     vertex -2.500000e+01 -2.337541e+00  8.411349e+01
     vertex -2.500000e+01 -2.481772e+00  8.530134e+01
   endloop
 endfacet
 facet normal -1.000000e+00  0.000000e+00  0.000000e+00
   outer loop
     vertex -2.500000e+01  2.337541e+00  8.588651e+01
     vertex -2.500000e+01  1.657807e+00  8.687128e+01
     vertex -2.500000e+01  2.057460e+00  8.642016e+01
   endloop
 endfacet
 facet normal -1.000000e+00  0.000000e+00  0.000000e+00
   outer loop
     vertex -2.500000e+01  2.337541e+00  8.588651e+01
     vertex -2.500000e+01  1.161808e+00  8.721364e+01
     vertex -2.500000e+01  1.657807e+00  8.687128e+01
   endloop
 endfacet
 facet normal -1.000000e+00  0.000000e+00  0.000000e+00
   outer loop
     vertex -2.500000e+01 -6.123234e-16  8.250000e+01
     vertex -2.500000e+01 -5.982892e-01  8.257265e+01
     vertex -2.500000e+01 -1.161808e+00  8.278636e+01
   endloop
 endfacet
 facet normal -1.000000e+00  0.000000e+00  0.000000e+00
   outer loop
     vertex -2.500000e+01  2.337541e+00  8.411349e+01
     vertex -2.500000e+01  2.481772e+00  8.530134e+01
     vertex -2.500000e+01  2.481772e+00  8.469866e+01
   endloop
 endfacet
 facet normal -1.000000e+00  0.000000e+00  0.000000e+00
   outer loop
     vertex -2.500000e+01  2.057460e+00  8.357984e+01
     vertex -2.500000e+01  2.337541e+00  8.588651e+01
     vertex -2.500000e+01  2.481772e+00  8.530134e+01
   endloop
 endfacet
 facet normal -1.000000e+00  0.000000e+00  0.000000e+00
   outer loop
     vertex -2.500000e+01  2.057460e+00  8.357984e+01
     vertex -2.500000e+01  2.481772e+00  8.530134e+01
     vertex -2.500000e+01  2.337541e+00  8.411349e+01
   endloop
 endfacet
 facet normal -1.000000e+00  0.000000e+00  0.000000e+00
   outer loop
     vertex -2.500000e+01  1.657807e+00  8.312872e+01
     vertex -2.500000e+01  5.982892e-01  8.257265e+01
     vertex -2.500000e+01 -6.123234e-16  8.250000e+01
   endloop
 endfacet
 facet normal -1.000000e+00  0.000000e+00  0.000000e+00
   outer loop
     vertex -2.500000e+01  1.657807e+00  8.312872e+01
     vertex -2.500000e+01  1.161808e+00  8.278636e+01
     vertex -2.500000e+01  5.982892e-01  8.257265e+01
   endloop
 endfacet
 facet normal -1.000000e+00  0.000000e+00  0.000000e+00
   outer loop
     vertex -2.500000e+01  1.657807e+00  8.312872e+01
     vertex -2.500000e+01  5.982892e-01  8.742735e+01
     vertex -2.500000e+01  1.161808e+00  8.721364e+01
   endloop
 endfacet
 facet normal -1.000000e+00  0.000000e+00  0.000000e+00
   outer loop
     vertex -2.500000e+01  1.657807e+00  8.312872e+01
     vertex -2.500000e+01  2.526608e-15  8.750000e+01
     vertex -2.500000e+01  5.982892e-01  8.742735e+01
   endloop
 endfacet
 facet normal -1.000000e+00  0.000000e+00  0.000000e+00
   outer loop
     vertex -2.500000e+01  1.657807e+00  8.312872e+01
     vertex -2.500000e+01 -5.982892e-01  8.742735e+01
     vertex -2.500000e+01  2.526608e-15  8.750000e+01
   endloop
 endfacet
 facet normal -1.000000e+00  0.000000e+00  0.000000e+00
   outer loop
     vertex -2.500000e+01  1.657807e+00  8.312872e+01
     vertex -2.500000e+01 -1.161808e+00  8.721364e+01
     vertex -2.500000e+01 -5.982892e-01  8.742735e+01
   endloop
 endfacet
 facet normal -1.000000e+00  0.000000e+00  0.000000e+00
   outer loop
     vertex -2.500000e+01  1.657807e+00  8.312872e+01
     vertex -2.500000e+01 -1.657807e+00  8.687128e+01
     vertex -2.500000e+01 -1.161808e+00  8.721364e+01
   endloop
 endfacet
 facet normal -1.000000e+00  0.000000e+00  0.000000e+00
   outer loop
     vertex -2.500000e+01  1.657807e+00  8.312872e+01
     vertex -2.500000e+01 -2.481772e+00  8.530134e+01
     vertex -2.500000e+01 -2.337541e+00  8.588651e+01
   endloop
 endfacet
 facet normal -1.000000e+00  0.000000e+00  0.000000e+00
   outer loop
     vertex -2.500000e+01  1.657807e+00  8.312872e+01
     vertex -2.500000e+01 -2.337541e+00  8.588651e+01
     vertex -2.500000e+01 -1.657807e+00  8.687128e+01
   endloop
 endfacet
 facet normal -1.000000e+00  0.000000e+00  0.000000e+00
   outer loop
     vertex -2.500000e+01  1.657807e+00  8.312872e+01
     vertex -2.500000e+01 -6.123234e-16  8.250000e+01
     vertex -2.500000e+01 -1.161808e+00  8.278636e+01
   endloop
 endfacet
 facet normal -1.000000e+00 -0.000000e+00  0.000000e+00
   outer loop
     vertex -2.500000e+01  1.657807e+00  8.312872e+01
     vertex -2.500000e+01 -1.161808e+00  8.278636e+01
     vertex -2.500000e+01 -2.481772e+00  8.530134e+01
   endloop
 endfacet
 facet normal -1.000000e+00  0.000000e+00  0.000000e+00
   outer loop
     vertex -2.500000e+01  1.657807e+00  8.312872e+01
     vertex -2.500000e+01  1.161808e+00  8.721364e+01
     vertex -2.500000e+01  2.337541e+00  8.588651e+01
   endloop
 endfacet
 facet normal -1.000000e+00  0.000000e+00  0.000000e+00
   outer loop
     vertex -2.500000e+01  1.657807e+00  8.312872e+01
     vertex -2.500000e+01  2.337541e+00  8.588651e+01
     vertex -2.500000e+01  2.057460e+00  8.357984e+01
   endloop
 endfacet
endsolid
